<mxfile host="Electron" modified="2023-10-01T14:25:46.985Z" agent="Mozilla/5.0 (Macintosh; Intel Mac OS X 10_15_7) AppleWebKit/537.36 (KHTML, like Gecko) draw.io/22.0.0 Chrome/114.0.5735.289 Electron/25.8.3 Safari/537.36" etag="LiHSIKDOeW66cV8AQFH7" version="22.0.0" type="device">
  <diagram name="第 1 页" id="hZHNZMP5M_iRD0ooPnMY">
    <mxGraphModel dx="2266" dy="1349" grid="1" gridSize="10" guides="1" tooltips="1" connect="1" arrows="1" fold="1" page="0" pageScale="1" pageWidth="827" pageHeight="1169" math="0" shadow="0">
      <root>
        <mxCell id="0" />
        <mxCell id="1" parent="0" />
        <mxCell id="bV2CL2KloU23PJASc8DV-1" value="" style="rounded=1;whiteSpace=wrap;html=1;dashed=1;arcSize=8;" vertex="1" parent="1">
          <mxGeometry y="165" width="230" height="105" as="geometry" />
        </mxCell>
        <mxCell id="ukqAuqTdSnkhuH-BYtik-34" value="物理机-03（宿主机）" style="rounded=1;whiteSpace=wrap;html=1;fontSize=16;arcSize=4;align=center;verticalAlign=bottom;" parent="1" vertex="1">
          <mxGeometry x="-280" y="280" width="200" height="120" as="geometry" />
        </mxCell>
        <mxCell id="ukqAuqTdSnkhuH-BYtik-31" value="物理机-02" style="rounded=1;whiteSpace=wrap;html=1;fontSize=16;arcSize=6;align=center;verticalAlign=bottom;" parent="1" vertex="1">
          <mxGeometry x="-460" y="280" width="120" height="120" as="geometry" />
        </mxCell>
        <mxCell id="ukqAuqTdSnkhuH-BYtik-28" value="物理机-01" style="rounded=1;whiteSpace=wrap;html=1;fontSize=16;arcSize=6;align=center;verticalAlign=bottom;" parent="1" vertex="1">
          <mxGeometry x="-640" y="280" width="120" height="120" as="geometry" />
        </mxCell>
        <mxCell id="ukqAuqTdSnkhuH-BYtik-8" value="" style="fontColor=#0066CC;verticalAlign=top;verticalLabelPosition=bottom;labelPosition=center;align=center;html=1;outlineConnect=0;fillColor=#505050;strokeColor=#6881B3;gradientColor=none;gradientDirection=north;strokeWidth=2;shape=mxgraph.networks.switch;fontSize=16;" parent="1" vertex="1">
          <mxGeometry x="10" y="220" width="100" height="30" as="geometry" />
        </mxCell>
        <mxCell id="ukqAuqTdSnkhuH-BYtik-22" style="edgeStyle=none;curved=1;rounded=0;orthogonalLoop=1;jettySize=auto;html=1;exitX=0.5;exitY=0;exitDx=0;exitDy=0;entryX=0.5;entryY=1;entryDx=0;entryDy=0;entryPerimeter=0;fontSize=12;startSize=8;endSize=8;" parent="1" source="ukqAuqTdSnkhuH-BYtik-16" target="ukqAuqTdSnkhuH-BYtik-8" edge="1">
          <mxGeometry relative="1" as="geometry" />
        </mxCell>
        <mxCell id="ukqAuqTdSnkhuH-BYtik-16" value="虚拟机-01" style="rounded=1;whiteSpace=wrap;html=1;fontSize=16;arcSize=6;align=center;verticalAlign=bottom;" parent="1" vertex="1">
          <mxGeometry x="-40" y="320" width="80" height="80" as="geometry" />
        </mxCell>
        <mxCell id="ukqAuqTdSnkhuH-BYtik-17" value="" style="sketch=0;pointerEvents=1;shadow=0;dashed=0;html=1;strokeColor=none;fillColor=#336600;labelPosition=center;verticalLabelPosition=bottom;verticalAlign=top;outlineConnect=0;align=center;shape=mxgraph.office.devices.nic;fontSize=16;" parent="1" vertex="1">
          <mxGeometry x="-428.50000000000006" y="310" width="57" height="38" as="geometry" />
        </mxCell>
        <mxCell id="ukqAuqTdSnkhuH-BYtik-23" style="edgeStyle=none;curved=1;rounded=0;orthogonalLoop=1;jettySize=auto;html=1;exitX=0.5;exitY=0;exitDx=0;exitDy=0;entryX=0.5;entryY=1;entryDx=0;entryDy=0;entryPerimeter=0;fontSize=12;startSize=8;endSize=8;" parent="1" source="ukqAuqTdSnkhuH-BYtik-18" target="ukqAuqTdSnkhuH-BYtik-8" edge="1">
          <mxGeometry relative="1" as="geometry" />
        </mxCell>
        <mxCell id="ukqAuqTdSnkhuH-BYtik-18" value="虚拟机-02" style="rounded=1;whiteSpace=wrap;html=1;fontSize=16;arcSize=6;align=center;verticalAlign=bottom;" parent="1" vertex="1">
          <mxGeometry x="50" y="320" width="80" height="80" as="geometry" />
        </mxCell>
        <mxCell id="ukqAuqTdSnkhuH-BYtik-19" value="" style="sketch=0;pointerEvents=1;shadow=0;dashed=0;html=1;strokeColor=none;fillColor=#336600;labelPosition=center;verticalLabelPosition=bottom;verticalAlign=top;outlineConnect=0;align=center;shape=mxgraph.office.devices.nic;fontSize=16;" parent="1" vertex="1">
          <mxGeometry x="-248.5" y="310" width="57" height="38" as="geometry" />
        </mxCell>
        <mxCell id="ukqAuqTdSnkhuH-BYtik-24" style="edgeStyle=none;curved=1;rounded=0;orthogonalLoop=1;jettySize=auto;html=1;exitX=0.5;exitY=0;exitDx=0;exitDy=0;entryX=0.5;entryY=1;entryDx=0;entryDy=0;entryPerimeter=0;fontSize=12;startSize=8;endSize=8;" parent="1" source="ukqAuqTdSnkhuH-BYtik-20" target="ukqAuqTdSnkhuH-BYtik-8" edge="1">
          <mxGeometry relative="1" as="geometry" />
        </mxCell>
        <mxCell id="ukqAuqTdSnkhuH-BYtik-20" value="虚拟机-03" style="rounded=1;whiteSpace=wrap;html=1;fontSize=16;arcSize=6;align=center;verticalAlign=bottom;" parent="1" vertex="1">
          <mxGeometry x="140" y="320" width="80" height="80" as="geometry" />
        </mxCell>
        <mxCell id="ukqAuqTdSnkhuH-BYtik-27" style="edgeStyle=none;curved=1;rounded=0;orthogonalLoop=1;jettySize=auto;html=1;entryX=0.5;entryY=1;entryDx=0;entryDy=0;entryPerimeter=0;fontSize=12;startSize=8;endSize=8;" parent="1" source="ukqAuqTdSnkhuH-BYtik-32" target="ukqAuqTdSnkhuH-BYtik-45" edge="1">
          <mxGeometry relative="1" as="geometry">
            <mxPoint x="-590" y="220" as="sourcePoint" />
            <mxPoint x="-399.9949999999999" y="200" as="targetPoint" />
          </mxGeometry>
        </mxCell>
        <mxCell id="ukqAuqTdSnkhuH-BYtik-30" style="edgeStyle=none;curved=1;rounded=0;orthogonalLoop=1;jettySize=auto;html=1;entryX=0.5;entryY=1;entryDx=0;entryDy=0;entryPerimeter=0;fontSize=12;startSize=8;endSize=8;" parent="1" source="ukqAuqTdSnkhuH-BYtik-17" target="ukqAuqTdSnkhuH-BYtik-45" edge="1">
          <mxGeometry relative="1" as="geometry">
            <mxPoint x="-399.9949999999999" y="200" as="targetPoint" />
          </mxGeometry>
        </mxCell>
        <mxCell id="ukqAuqTdSnkhuH-BYtik-32" value="" style="sketch=0;pointerEvents=1;shadow=0;dashed=0;html=1;strokeColor=none;fillColor=#336600;labelPosition=center;verticalLabelPosition=bottom;verticalAlign=bottom;outlineConnect=0;align=center;shape=mxgraph.office.devices.nic;fontSize=16;" parent="1" vertex="1">
          <mxGeometry x="-608.5" y="310" width="57" height="38" as="geometry" />
        </mxCell>
        <mxCell id="ukqAuqTdSnkhuH-BYtik-33" style="edgeStyle=none;curved=1;rounded=0;orthogonalLoop=1;jettySize=auto;html=1;entryX=0.5;entryY=1;entryDx=0;entryDy=0;entryPerimeter=0;fontSize=12;startSize=8;endSize=8;" parent="1" source="ukqAuqTdSnkhuH-BYtik-19" target="ukqAuqTdSnkhuH-BYtik-45" edge="1">
          <mxGeometry relative="1" as="geometry">
            <mxPoint x="-399.9949999999999" y="200" as="targetPoint" />
          </mxGeometry>
        </mxCell>
        <mxCell id="ukqAuqTdSnkhuH-BYtik-46" style="edgeStyle=none;curved=1;rounded=0;orthogonalLoop=1;jettySize=auto;html=1;exitX=0.5;exitY=0;exitDx=0;exitDy=0;exitPerimeter=0;entryX=0.5;entryY=1;entryDx=0;entryDy=0;entryPerimeter=0;fontSize=12;startSize=8;endSize=8;" parent="1" source="ukqAuqTdSnkhuH-BYtik-45" target="ukqAuqTdSnkhuH-BYtik-47" edge="1">
          <mxGeometry relative="1" as="geometry">
            <mxPoint x="-399.9999999999998" y="80" as="targetPoint" />
          </mxGeometry>
        </mxCell>
        <mxCell id="ukqAuqTdSnkhuH-BYtik-45" value="" style="fontColor=#0066CC;verticalAlign=top;verticalLabelPosition=bottom;labelPosition=center;align=center;html=1;outlineConnect=0;fillColor=#CCCCCC;strokeColor=#6881B3;gradientColor=none;gradientDirection=north;strokeWidth=2;shape=mxgraph.networks.router;fontSize=16;" parent="1" vertex="1">
          <mxGeometry x="-466.66" y="160" width="133.33" height="40" as="geometry" />
        </mxCell>
        <mxCell id="ukqAuqTdSnkhuH-BYtik-47" value="" style="outlineConnect=0;dashed=0;verticalLabelPosition=bottom;verticalAlign=top;align=center;html=1;shape=mxgraph.aws3.internet_2;fillColor=#bac8d3;fontSize=16;strokeColor=#23445d;" parent="1" vertex="1">
          <mxGeometry x="-465.83" y="-10" width="132.5" height="90" as="geometry" />
        </mxCell>
        <mxCell id="ukqAuqTdSnkhuH-BYtik-48" value="互联网" style="text;html=1;strokeColor=none;fillColor=none;align=center;verticalAlign=middle;whiteSpace=wrap;rounded=0;fontSize=16;" parent="1" vertex="1">
          <mxGeometry x="-320" y="30" width="60" height="30" as="geometry" />
        </mxCell>
        <mxCell id="ukqAuqTdSnkhuH-BYtik-49" value="路由器" style="text;html=1;strokeColor=none;fillColor=none;align=center;verticalAlign=middle;whiteSpace=wrap;rounded=0;fontSize=16;" parent="1" vertex="1">
          <mxGeometry x="-320" y="165" width="60" height="30" as="geometry" />
        </mxCell>
        <mxCell id="ukqAuqTdSnkhuH-BYtik-51" value="虚拟交换机" style="text;html=1;strokeColor=none;fillColor=none;align=center;verticalAlign=middle;whiteSpace=wrap;rounded=0;fontSize=16;" parent="1" vertex="1">
          <mxGeometry x="17.5" y="175" width="85" height="30" as="geometry" />
        </mxCell>
        <mxCell id="DwfaecdnrL4nMJUOLJSl-1" value="" style="sketch=0;pointerEvents=1;shadow=0;dashed=0;html=1;strokeColor=#82b366;fillColor=#d5e8d4;labelPosition=center;verticalLabelPosition=bottom;verticalAlign=top;outlineConnect=0;align=center;shape=mxgraph.office.devices.nic;fontSize=16;" parent="1" vertex="1">
          <mxGeometry x="-22.5" y="340" width="45" height="30" as="geometry" />
        </mxCell>
        <mxCell id="DwfaecdnrL4nMJUOLJSl-2" value="" style="sketch=0;pointerEvents=1;shadow=0;dashed=0;html=1;strokeColor=#82b366;fillColor=#d5e8d4;labelPosition=center;verticalLabelPosition=bottom;verticalAlign=top;outlineConnect=0;align=center;shape=mxgraph.office.devices.nic;fontSize=16;" parent="1" vertex="1">
          <mxGeometry x="67.5" y="340" width="45" height="30" as="geometry" />
        </mxCell>
        <mxCell id="DwfaecdnrL4nMJUOLJSl-3" value="" style="sketch=0;pointerEvents=1;shadow=0;dashed=0;html=1;strokeColor=#82b366;fillColor=#d5e8d4;labelPosition=center;verticalLabelPosition=bottom;verticalAlign=top;outlineConnect=0;align=center;shape=mxgraph.office.devices.nic;fontSize=16;" parent="1" vertex="1">
          <mxGeometry x="157.5" y="340" width="45" height="30" as="geometry" />
        </mxCell>
        <mxCell id="qskKyAz_q8V6QyyZU2Gv-1" value="" style="sketch=0;pointerEvents=1;shadow=0;dashed=0;html=1;strokeColor=#82b366;fillColor=#d5e8d4;labelPosition=center;verticalLabelPosition=bottom;verticalAlign=top;outlineConnect=0;align=center;shape=mxgraph.office.devices.nic;fontSize=16;" parent="1" vertex="1">
          <mxGeometry x="-170" y="310" width="57" height="38" as="geometry" />
        </mxCell>
        <mxCell id="qskKyAz_q8V6QyyZU2Gv-3" style="edgeStyle=none;curved=1;rounded=0;orthogonalLoop=1;jettySize=auto;html=1;entryX=0.5;entryY=1;entryDx=0;entryDy=0;entryPerimeter=0;fontSize=12;startSize=8;endSize=8;" parent="1" source="qskKyAz_q8V6QyyZU2Gv-1" target="ukqAuqTdSnkhuH-BYtik-8" edge="1">
          <mxGeometry relative="1" as="geometry">
            <mxPoint x="30" y="310" as="sourcePoint" />
            <mxPoint x="120" y="260" as="targetPoint" />
          </mxGeometry>
        </mxCell>
        <mxCell id="qskKyAz_q8V6QyyZU2Gv-10" value="" style="group" parent="1" vertex="1" connectable="0">
          <mxGeometry x="60" width="170" height="121" as="geometry" />
        </mxCell>
        <mxCell id="qskKyAz_q8V6QyyZU2Gv-9" value="" style="rounded=1;whiteSpace=wrap;html=1;fontSize=16;arcSize=10;" parent="qskKyAz_q8V6QyyZU2Gv-10" vertex="1">
          <mxGeometry width="170" height="121" as="geometry" />
        </mxCell>
        <mxCell id="qskKyAz_q8V6QyyZU2Gv-5" value="" style="sketch=0;pointerEvents=1;shadow=0;dashed=0;html=1;strokeColor=none;fillColor=#336600;labelPosition=center;verticalLabelPosition=bottom;verticalAlign=bottom;outlineConnect=0;align=center;shape=mxgraph.office.devices.nic;fontSize=16;" parent="qskKyAz_q8V6QyyZU2Gv-10" vertex="1">
          <mxGeometry x="20" y="11" width="57" height="38" as="geometry" />
        </mxCell>
        <mxCell id="qskKyAz_q8V6QyyZU2Gv-6" value="" style="sketch=0;pointerEvents=1;shadow=0;dashed=0;html=1;strokeColor=#82b366;fillColor=#d5e8d4;labelPosition=center;verticalLabelPosition=bottom;verticalAlign=top;outlineConnect=0;align=center;shape=mxgraph.office.devices.nic;fontSize=16;" parent="qskKyAz_q8V6QyyZU2Gv-10" vertex="1">
          <mxGeometry x="20" y="71" width="57" height="38" as="geometry" />
        </mxCell>
        <mxCell id="qskKyAz_q8V6QyyZU2Gv-7" value="物理网卡" style="text;html=1;strokeColor=none;fillColor=none;align=center;verticalAlign=middle;whiteSpace=wrap;rounded=0;fontSize=16;" parent="qskKyAz_q8V6QyyZU2Gv-10" vertex="1">
          <mxGeometry x="77" y="15" width="83" height="30" as="geometry" />
        </mxCell>
        <mxCell id="qskKyAz_q8V6QyyZU2Gv-8" value="虚拟网卡" style="text;html=1;strokeColor=none;fillColor=none;align=center;verticalAlign=middle;whiteSpace=wrap;rounded=0;fontSize=16;" parent="qskKyAz_q8V6QyyZU2Gv-10" vertex="1">
          <mxGeometry x="77" y="75" width="83" height="30" as="geometry" />
        </mxCell>
        <mxCell id="nUFAcdR-XoTYFBPVcoMu-1" style="edgeStyle=none;curved=1;rounded=0;orthogonalLoop=1;jettySize=auto;html=1;exitX=0;exitY=0.5;exitDx=0;exitDy=0;fontSize=12;startSize=8;endSize=8;endArrow=none;endFill=0;entryX=1;entryY=0.5;entryDx=0;entryDy=0;entryPerimeter=0;" parent="1" source="nUFAcdR-XoTYFBPVcoMu-2" target="ukqAuqTdSnkhuH-BYtik-8" edge="1">
          <mxGeometry relative="1" as="geometry">
            <mxPoint x="60" y="220" as="targetPoint" />
          </mxGeometry>
        </mxCell>
        <mxCell id="nUFAcdR-XoTYFBPVcoMu-2" value="" style="shape=image;verticalLabelPosition=bottom;labelBackgroundColor=default;verticalAlign=top;aspect=fixed;imageAspect=0;image=data:image/png,iVBORw0KGgoAAAANSUhEUgAAAOEAAADhCAMAAAAJbSJIAAAApVBMVEX///8Ao+CQkJCMjIwAm94And4An9/AwMAAod+JiYmTj40ApOPj4+ONjY3Pz8+kpKTY2Nju7u6UlJRkl7K64PTIyMit2PHz+/74+Pjq9vzF5fbp9vy6urqHkpbR6/giqeKY0e/f8fqIy+1MteZlvehWuOee1PBcuuevr6/n5+ey3fPa7/o5r+TL6Pd6xetywuppm7Oenp5Rm7+Urrsfm857lKB+fn5pdJqaAAAPCUlEQVR4nO1d6XriuBK1Y+TI3SHbEMx2sTFgEjBwMzO33//Rrjftm/ECdH8+X34ErzqWVFUqSVWW1aNHjx49evTo0aNHjx49evTo0aNHjx49evTo0eMPgz+dLkf7cY796DCd3rpALWI1C09JAAEAbvqXIv8H2ME2io+/O9H5KFq7KSsIoc0jPQZdMLC34cy/dTnrwR+dgoybQI0nmlZoEh1vXdxLMR2vgZkdRRPAzej3qUp/n9Gryg6zdMFmduuiV8LhDC+nV5IEdnT3FTlKBjXpFRzhYLe8NQcdYhs04VdWZDK6NQ8VYqjlB138r76bQhDcJce9vv4gWO8RRTAPA8PFyd0JnaOpyJuDZQ3KX4P0hlliuGG7ujUnGtOdvv+5ySG7jGaYCiVbew8Ep5tyYhDy3YrVF3AQF9exDC1rA5ibeAvBte+kO64Cly1ZKiniMykttJH85xlaY6rqYRjxkiptqvegHkO+WIP1zJqR2oEBLqXA0FqSeoPQt8Z8b4bw5hLHTwBbJHBOJcSUHHTX5GKRoTUnnREGliiA4OB8dU4MjmzfSfnNs8MJKTZFUMaQpujmomXJcXSD+TUZcQgHrETZFIWJcBXChL5cxtBakY8EiiZ5ZDlCcDuBswNMQZJSohwIwYCRFFKG9OV2eWhvM8ILRNdgI8JnZCiEe3QiIO2ObWByhtaeUMSdLmKqEWw65iLFiu6Cqc2CayvExPnmpWBoncgdeKy/Sujv5ybW1bGklTp0CZcpLpnLGyUqhkQy5fK0BNPJufZ+BczoVgTW1Ot3stIWUDKc43bqxuQoY0rAK4vUESVj4CCkzhwQDRsc+LuUDK0YPS/T+wS0WQfhNSnOBvSbmUE5bnCuKADVDFW3xbRZZ1/PuXqkPq2bMB1kRipDvE/DkKgMwDyPMuuu2BcP1Id1t+w5XBcyNa1haJ0UdT8NaIrtkdBhTn1WfgxHqlAm3nUMfSKCuZqi1Ib0qa3DpwaugrGBq3AgiBlLz5AIG6EDbyk7fiu7tWUkFMGYO7fEVSg1QrQMiSkk9GBKpErkV9s4u2qCRBeKmiKDnuEYO6rG/CmKYudm+Jh6V8ifxMNCuJPerGdooeYvESg76rt266E6UATF9hKhckh7oZFhjCtRnIlaswPl7kANGyRjb1wJa/FcBgNDC3dESRMgb4ZdSpsNeY1EbmNVARTOFRNDohNF1e5TAk7op61hT5uJQcwXY6fuRwVMDLEB7vIybB7RztXOuuKcGXhD1z0zFinW2W6oeICJIe5tXAsZbV3WAdtVV0zot+RvAkFESGKVDVQWspHhCIsqUkuzszjh05FWnAFbAITAPpW9DleAXFVYFRhayCAsm4G/30jns9gxVmsIJK8qSMLteGX5uBMpdbKZ4YnqyscwAarpELnN1BChpArxC11gY43lKh9hZkjMvsTVTjJKVGZTEDEjn6bHAw6odlKbGVLGqfxLql0kjYFVIdwu17q5NBjsotFK2k/0DKfLfbQJ1A+2XbBZYuatK8UVGYPPU+Nt46pJ5muAYJDsonh0YMSqnOFquQ+jXWJnd6m/XFp90ZxSya1XIhk1hPlvf5zoylMu6srWr6Vct5tzFI7HWBe42RK+ODpv1kngDrIFb1C2LoymB9al/CLdXRjZNMJS8ulWUVBpYRCEBVuXstqzFXzF8Qr3uyCJsZ9tpXMENQD+cuzw7FCRZG2kqggkIWOkEeM1bJHgCvUg0eBehWuob6/16aW1vhvzBhI2DvE8ThvAc9ZSNeTPIsGga4PgNpQuj8Kj0BaH++SzKX1dCoOnCUHVUgy/A50YagbfBYj/wi0kYx1KuZoZmMtPKrG1JXCowOoqRIogvWJ+jKNtsei5oqwsqAE72YR7al0RUFnXvsEddDlGZps6Qt8AN635bByeUj0OQL7AO1vfTTmvc+XhFmeC9Tm1DZaYD2rwrnIZBhGnLc1kbFHx1RoIaROwF075q8NxtI/jMIxwA4yiMIzHo+NhJSkiEmtqbbBS+gLqgQyLlK/E7VjvX6hgeVvEb6oZIeGhaDuyhjj5lG0ic7D8zAC0Txr8LKBneECXqYs/A+hJcrflhUC6TuPFO4Kf//79V4r/PurwF4L2qkWFy/Al/zw/NSZYYexuxf/+70cBR4cfP6pcVeUyfMnQ8R6eGzLEfnyNpfvPjx8Pt4P3PmnEEEtSdcd/9G7IL8XwoRFDaGykrzcmmFJ8aUCQjAyVDrz3WxNMG+prfYbICFTNtrBVOKSkwZArxVA4LB7JDno52KOMmBnyT25WiUhXqM2HhUNe9EkJ/ZcHz2EKUR4f8ld/UiX2nM/Xr8nk7enjhbr7nVUnL47Hk/TqCxv9rG6GF/I2rrG8PTqklM5jedDjr37GFzkOJfknj4iHWENPL1zf997qEkRTohqb9Jt6D98dJp+4JM7CyND7ZGvi7XuobIOvbDV6tRU/0oYag0bHMC0+ImRm6H2Izx6qGFpvjICrz/BkNPQNDK0nryJDdAFDw1MypB7UiOHaOFgzMbQ+vGoMh7KHfzhKhowQr88QedFd9cJACcO359fXJ9yniqZmYoi/zut3qisW6G6GYfrYFNyDmzH0KxilEobPuUpDre7Lq1SHiEUuQhz089GhGP4qdCX+Fl5zhsii0S0okzLMf6GC5frEwBApk0l5Gomd7HLMEJ37Yn83YYhcNJopMzVD/Nr8WxsYolIj2Tv8Lh//LjIcfpa/iSquzRD5EaFm4lzNEJekAkOHLzSyUtIDPMMHr/y9aM4QOY9czWydmiHuW1mx9QwFEthKWcgYlucesTVUm+HGrCx0DKlSmhiW1T3BZ53npxyf3TLEXkKNd1nHsHxvptX0DMWzD04hOIeSCkYteNGcIRpZAM06+XYYCnY5BbEJl79b6Id4wgUMlPjPZQxFKOpQzRAbsMQ0bc5QjZ9XZPgrHwFjPTtpQR/qNyNfneEiHwFjMkTQ/DEMWUwoF8KfyfCF9n7cE0M8NED/1GS4aGV82AHDt3KA4Hm/9PpQz3DCemruSZY20YeE3yPnbbuZPiwHDI9GhkOxDj3RpilGwM+PL4yfshHDpjZN2dU+a9il3utXDtou/SXzFjdj2NAufacuMYye0KXE0iRfR7Ta2mPYbGzBjNtNI2CqunMgx5RsfNgiw2bjQ1TqYohrYEj7Ax6o0bNkjN8mwyZj/KGHXPS5gWxgiBkN2SJ/Sfw0bTKs7adJxcEL8he9VvK1oQr/8hxn6HiIMONr64BhTV/bZDJ5I1MQRa2YGKJOa00+FosF+jo5qS4ZTuv5Sxl8VmMonz5aMB7hDhjW9HkzZaw6byGfYWLOdMGw8bwFNh/Nc0+OQPGL494Fw4ZzT68P2PyoMH/ofLPzh9g73CXDBvOHk6+Pd6pIvNtewjBVMI+E4yu+u1OGB7OooRg+vFNwePO4PC5eTV3jeN+PH6lx/fE59HS3tsfwsnn8NjB0HM8TV3IYUH8e/7K1GLdDg7UY4UXraW6FJutp/vw1Ub/HurZvVdmqYPc7rE1stPwSry9V7w299frS72brS+98jbDnvTddI1xxnbf999+3Wef9pSxVZVx7rf7y6mv173C/BV6Z3dLeLixN1Rv+NHtm5qvDcrYfx2EY0ntm4ng/mi1Xki3RZ6MV1faeGbLvSb3hT7PvyVXue8pPATdINqdwTzJd3GDf0yV71wLLX+6jXQLRTl/bCOXeNVXx29+7dtH+Q3uQbTpvsv/Q2MciY3EuBim/0vy+6h7SluVMBhxQQb4PeHRqn2DWJ6KjzNrHVahzxF+Kg3ov9zJMKuRaqUfRzaKm8E4+0gvb3MuNFRAnTo8nQ5qDFlgOkpBR61iQiuHimkAWU2GZ0qtQeTikQoOYCkHYeUwFKqhCmP+eZvkbDHExcnU3sIP17nyKYllcjG0SwAEARr2SBY7YcwVpNaSCxcQXTT/ncqdpnHnEDxisT+H4uKoQ7Xq+HKVs19n2b02LTxVsFttk1E0vzEDFpxlpc1nA5BzP5jXi0/irUaiNTwM7jU9DBTOW51ohMYbUBnMLMYbwfx0ENItc2TvRm6k4UeoR1CVxotaGOFFd5EzQxPradRHraxmq8361Z5HSkMZrc0lQOrxJXmnaXR6vbSQJR5e/o5uw0NKYe0QbY5eVchhcK+be8Xox9yhhU1QfPDHGBjGnVO+/+7iJdADatBDCcB77FlSqqn7sy9TAoCh2GIYWm6eG+KUKWVM5fqkkcAsdv7TdKF/sa/iUKSxseSPDMDAkwYP0MWiVkqwN6OMIm3wB7cQRtruNPR9TFIXGMjf4AlqJBd2Oi1SDjS6eNxlGNornLTyXjufdXRBhhGox2aU2R7WY7OLAj47JfoVkbExc/ZA7ibtLm3H1qZREnUa6xlhR2pcXN0dtT9QyJFKakyTra+dGoNqiLeYpIvktJMa/jiEeunAWkc/kt7hWCg/aBlfmKJEYNhqGVHxUdY6SjvUEDSbPjM10uXbzzDDpA6+aSofNFUSL1GWbuYLON8sVlNUibQnTiRixTrwg3xOVBUuZ78m+dl7SIz1og5DY2mSMJdh1l+Xsim+bsys1UZV51whFTp6qGJJsgveUd43NU5RVIzaniL+MczYoGJJOTfx0XO68TtwyFbBlsxSi/IdEX3JdUZH/kLgIkZgZ3Uf+wxTRgC5I2lSFHJaMaSNlOCVWYDlyvqMclqlIZX2aKA8playFNiRlDH0+scthfU95SNMaSFhHcZFLlvJZ0RQlDKnOXOSSXd9ZLlnLnA+YMuu0+YAzH+g95gNOcQg4V3HNnM5RxGdduJOczpZYjUJe7rC4jmPo71gHrJiX+x4qsIAptzoI8mpkGe71E8B3lVs9xSzQzuen7W3JMtRPQqb1vr22HWrEWJ67hHAMiLfwcLINFyftZ1lpAaF8nggXm/LS6WftQXBLHa9FrG96lZDW393yyzBKGnGEcLBrLVh+VzgoJjUrVZ8d3YkC1MMfr5WpqDT0XLC5S/Eix3SsnoOXsUurfXPXvU+GbMWiNr8RIucCkER33/kUmO+jdbmoS0KtWDy1DWe/Rd/TYDULT0kA8Xrvcn23Hayj+HjbsV+r8KfT1SxbsTce72fL6fR6WcR79OjRo0ePHj169OjRo0ePHj169OjRo0ePHj16XAn/B5h3Uw8yqo/YAAAAAElFTkSuQmCC;" parent="1" vertex="1">
          <mxGeometry x="142.5" y="205" width="60" height="60" as="geometry" />
        </mxCell>
        <mxCell id="BLa0mn9msG9tE6hqlMfk-1" value="虚拟DHCP" style="text;html=1;strokeColor=none;fillColor=none;align=center;verticalAlign=middle;whiteSpace=wrap;rounded=0;fontSize=16;" parent="1" vertex="1">
          <mxGeometry x="137.5" y="175" width="85" height="30" as="geometry" />
        </mxCell>
      </root>
    </mxGraphModel>
  </diagram>
</mxfile>
